<svg id="Layer_1" data-name="Layer 1" xmlns="http://www.w3.org/2000/svg" viewBox="0 0 50 20"><defs><style>.cls-1{fill:#181818;}</style></defs><path class="cls-1" d="M30.14,9.55c0-.05,0-.08,0-.12l-.09-2.25c0-.3,0-.6,0-.9,0-.5,0-1,0-1.51,0-.1,0-.14.14-.13s.46,0,.7.06c-.07,2.36.1,4.71.17,7.08l-.53,0a.3.3,0,0,0-.25.12,3.23,3.23,0,0,1-1.8,1.1,1.66,1.66,0,0,1-1.23-.2,1.08,1.08,0,0,1-.41-1.59c.1-.16.22-.32.33-.5l-.06,0a3.05,3.05,0,0,0-1.29,2,2.41,2.41,0,0,0,.58,2A4,4,0,0,0,28.57,16a5.32,5.32,0,0,0,4.84-1.32,3.69,3.69,0,0,0,.79-1.24l0-.09s0,0,0,0l.79.29c-.14.27-.26.54-.42.79a5.26,5.26,0,0,1-3.45,2.41,5.61,5.61,0,0,1-3.66-.29,4.13,4.13,0,0,1-2.2-2,3.29,3.29,0,0,1,.12-3,4.1,4.1,0,0,1,2.9-2.14,2.63,2.63,0,0,1,1.72.21ZM30,10.7v0a.73.73,0,0,0-.67-.5l-.07,0a6.4,6.4,0,0,0-1.45,1.19,1.24,1.24,0,0,0-.22.34c-.08.17-.05.29.13.35a1.34,1.34,0,0,0,.52.1,2.15,2.15,0,0,0,1.43-.72A1.06,1.06,0,0,0,30,10.7Z"/><path class="cls-1" d="M10.86,10.72a5.2,5.2,0,0,0-.44.38,3,3,0,0,0-.87,1.58,2.36,2.36,0,0,0,.38,1.82A3.74,3.74,0,0,0,12.17,16a5.16,5.16,0,0,0,4.72-1.1,3.17,3.17,0,0,0,1-1.44l0-.07,0,0,.78.29c0,.06,0,.1,0,.15a5.26,5.26,0,0,1-3.79,3.06,5.73,5.73,0,0,1-3.76-.32,4.21,4.21,0,0,1-2-1.77,3.28,3.28,0,0,1,0-3.25A4.06,4.06,0,0,1,12,9.32a2.69,2.69,0,0,1,1.72.21h.05s0,0,0,0c0-.17,0-.34,0-.51,0-.89-.06-1.78-.08-2.66,0-.54,0-1.08,0-1.61,0-.11.05-.13.14-.12l.69.06c-.07,2.36.11,4.71.18,7.08l-.54,0a.3.3,0,0,0-.24.12A3.15,3.15,0,0,1,12.32,13,1.74,1.74,0,0,1,11,12.83a1.09,1.09,0,0,1-.44-1.56c.1-.18.23-.35.34-.52Zm2.81,0a.4.4,0,0,0-.23-.41,1.43,1.43,0,0,0-.34-.14.23.23,0,0,0-.18,0,6.09,6.09,0,0,0-1.29,1,2.66,2.66,0,0,0-.37.51.21.21,0,0,0,.12.34,1.37,1.37,0,0,0,.52.1,2.19,2.19,0,0,0,1.47-.75A1,1,0,0,0,13.67,10.72Z"/><path class="cls-1" d="M19.54,12.4c.2,0,.2,0,.29-.17a2.3,2.3,0,0,1,.55-.69A3.75,3.75,0,0,1,22,10.65a1,1,0,0,1,1.32.8,1.2,1.2,0,0,1-.3,1.06.5.5,0,0,0-.1.14l.14-.09a2.1,2.1,0,0,0,.72-1.24,3.46,3.46,0,0,0-.2-1.91,2.88,2.88,0,0,0-1.66-1.57,5.3,5.3,0,0,0-1.48-.33,10.52,10.52,0,0,0-1.12-.07A8.67,8.67,0,0,0,16,8.12h0l-.24-.79.49-.2a9.25,9.25,0,0,1,2.66-.48,10.09,10.09,0,0,1,2.9.27A4.11,4.11,0,0,1,23.65,8a3.46,3.46,0,0,1,1,2.12,4,4,0,0,1-.07,1.57,2.83,2.83,0,0,1-2.32,2.14,2.7,2.7,0,0,1-1.79-.26,3.2,3.2,0,0,0-1-.35c-.1,0-.11-.05-.09-.14S19.48,12.63,19.54,12.4Zm1.16.06,0,0,.57-.07a2.1,2.1,0,0,0,1-.37.56.56,0,0,0,.23-.35c0-.16,0-.24-.19-.24a.84.84,0,0,0-.35.07,3.27,3.27,0,0,0-1.18.84Z"/><path class="cls-1" d="M6.22,12.28c-.08.23-.16.42-.23.61a2.61,2.61,0,0,1-.42.79.72.72,0,0,1-1.05.11,8.45,8.45,0,0,1-.68-.66l-.33-.33a.18.18,0,0,0-.21,0,6,6,0,0,1-1.66.51c-.25,0-.25,0-.3-.21s-.08-.35-.11-.53a.16.16,0,0,1,0-.11l1.4-.52a.45.45,0,0,1,.16,0,1.55,1.55,0,0,0,1-.43l.32-.29A1.1,1.1,0,0,0,4.36,10c0-.06,0-.11-.12-.1a3.15,3.15,0,0,0-1.66.46,2.82,2.82,0,0,0-.35.29l-.74-.4a1.58,1.58,0,0,1,.58-.62A3.66,3.66,0,0,1,3.59,9.1a4.09,4.09,0,0,1,.78,0,.79.79,0,0,1,.8.57,2,2,0,0,1-.1,1.71,3.24,3.24,0,0,1-.69.79l-.15.12.73.87a1.31,1.31,0,0,0,.1-.21c.12-.31.22-.64.34-1a3.37,3.37,0,0,1,.3-.56.5.5,0,0,1,.75-.15,2.67,2.67,0,0,1,.4.42,2.47,2.47,0,0,0,.21.27s0-.11,0-.16a2.88,2.88,0,0,1,.5-2.29,1.48,1.48,0,0,1,.7-.56l0,0h0l.27.8a1.66,1.66,0,0,0-.74,1.56,6.23,6.23,0,0,0,.3,1.36c.07.25.12.52.17.78a.11.11,0,0,1-.07.14c-.18.09-.36.18-.53.28a.12.12,0,0,1-.17,0A3.2,3.2,0,0,1,6.75,13c-.14-.19-.29-.38-.43-.58Z"/><path class="cls-1" d="M48.7,13a1.77,1.77,0,0,1-.89-.2,1,1,0,0,1-.34-.28.63.63,0,0,1,0-.74.61.61,0,0,1,.65-.27,2.08,2.08,0,0,1,1,.5.21.21,0,0,1,0,.29.18.18,0,0,1-.26,0c-.12-.09-.25-.19-.38-.27a1.28,1.28,0,0,0-.37-.14.25.25,0,0,0-.23.08.25.25,0,0,0,0,.24.45.45,0,0,0,.21.2,1.3,1.3,0,0,0,.8.16.4.4,0,0,0,.34-.55.82.82,0,0,0-.24-.37,1.49,1.49,0,0,0-1-.38.7.7,0,0,0-.72.87,1,1,0,0,0,.47.71,2.86,2.86,0,0,0,.95.41.19.19,0,0,1,.16.27.18.18,0,0,1-.21.14,2.38,2.38,0,0,1-1.66-1.1A1.19,1.19,0,0,1,47,11.27a.87.87,0,0,1,.65-.41,1.89,1.89,0,0,1,1.61.53,1,1,0,0,1,.31.83A.8.8,0,0,1,48.7,13Z"/><path class="cls-1" d="M20.18,16.21h-.41a.41.41,0,0,1-.41-.55.37.37,0,0,1,.47-.26,2.21,2.21,0,0,1,.34.18.67.67,0,0,0,.14.09s0-.07-.06-.1a1.51,1.51,0,0,1-.18-.36.4.4,0,1,1,.78-.17,1.89,1.89,0,0,1,0,.41.18.18,0,0,0,0,.1l.06-.09a1.73,1.73,0,0,1,.16-.3.41.41,0,0,1,.58-.08.39.39,0,0,1,0,.6,1.21,1.21,0,0,1-.28.18l-.18.09h.11a2.23,2.23,0,0,1,.37,0,.38.38,0,0,1,.3.51.4.4,0,0,1-.52.26,2.07,2.07,0,0,1-.32-.19.39.39,0,0,1-.1-.08l0,0a.83.83,0,0,1,.11.15,1.34,1.34,0,0,1,.14.38.36.36,0,0,1-.33.41.39.39,0,0,1-.46-.31,1.79,1.79,0,0,1,0-.4.18.18,0,0,0,0-.12.56.56,0,0,1,0,.12,2.62,2.62,0,0,1-.24.34.39.39,0,0,1-.56,0,.38.38,0,0,1,0-.55,1.6,1.6,0,0,1,.34-.2A.64.64,0,0,1,20.18,16.21Zm.88-.13a.41.41,0,0,0-.4-.42.41.41,0,0,0-.42.41.42.42,0,0,0,.42.42A.4.4,0,0,0,21.06,16.08Z"/><path class="cls-1" d="M9.89,7.43l-.15,0c-.11,0-.23,0-.34,0a.38.38,0,0,1-.3-.49.38.38,0,0,1,.51-.28,1.34,1.34,0,0,1,.31.17l.13.1,0,0A.54.54,0,0,1,10,6.79a1.71,1.71,0,0,1-.17-.39A.36.36,0,0,1,10.14,6a.38.38,0,0,1,.46.33,2.28,2.28,0,0,1,0,.37.26.26,0,0,0,0,.12l.15-.29a.42.42,0,0,1,.3-.25.4.4,0,0,1,.44.2.35.35,0,0,1-.05.46,1.55,1.55,0,0,1-.33.21s-.09,0-.14.07h.38a.4.4,0,0,1,.4.51.37.37,0,0,1-.48.29,1.9,1.9,0,0,1-.37-.2l-.08-.07,0,0,.09.11A.64.64,0,0,1,11,8.4a.39.39,0,0,1-.37.28.35.35,0,0,1-.39-.26,3.1,3.1,0,0,1,0-.43s0-.09,0-.14l-.14.28a.48.48,0,0,1-.33.26.4.4,0,0,1-.44-.22.37.37,0,0,1,.09-.47,1.86,1.86,0,0,1,.34-.19l.11,0Zm.92-.12a.4.4,0,0,0-.41-.4.41.41,0,0,0-.41.41.41.41,0,1,0,.82,0Z"/><path class="cls-1" d="M34.06,8.63a1,1,0,0,1,.12.16,1.4,1.4,0,0,1,.14.37.37.37,0,0,1-.33.41.39.39,0,0,1-.45-.27,2.75,2.75,0,0,1,0-.41.33.33,0,0,0,0-.14.59.59,0,0,1,0,.08,1.73,1.73,0,0,1-.2.32.39.39,0,0,1-.6,0,.41.41,0,0,1,0-.6,3.24,3.24,0,0,1,.32-.17.18.18,0,0,0,.1-.06H33a1.79,1.79,0,0,1-.4,0,.38.38,0,0,1-.26-.5.38.38,0,0,1,.49-.27,2.6,2.6,0,0,1,.36.21l.09.07,0,0-.07-.09a2.54,2.54,0,0,1-.16-.28A.38.38,0,0,1,33.18,7a.4.4,0,0,1,.44-.09.39.39,0,0,1,.26.38,2.07,2.07,0,0,1,0,.35.13.13,0,0,0,0,.08c.06-.11.11-.23.18-.34a.39.39,0,0,1,.41-.21.39.39,0,0,1,.28.63,1.8,1.8,0,0,1-.35.24.85.85,0,0,0-.15.09h.09a2.88,2.88,0,0,1,.42,0A.38.38,0,0,1,35,8.6a.39.39,0,0,1-.51.28,3.12,3.12,0,0,1-.35-.2l-.09-.08Zm-.81-.42a.43.43,0,0,0,.41.42.42.42,0,0,0,.42-.42.41.41,0,0,0-.41-.41A.42.42,0,0,0,33.25,8.21Z"/><path class="cls-1" d="M40.68,11.57a2.53,2.53,0,0,1,.06.46.83.83,0,0,1-.88.71,1,1,0,0,1-.75-.47,2.72,2.72,0,0,1-.11-.34h-.07s-.13-.06-.15-.11a.2.2,0,0,1,0-.19,1.19,1.19,0,0,1,.36-.24,5.13,5.13,0,0,1,.69-.25c.1,0,.11-.07.07-.15a.34.34,0,0,0-.26-.24.31.31,0,0,0-.32.17c-.13.19-.3.18-.4,0a2.37,2.37,0,0,1-.15-.8c0-.1.08-.16.18-.18a.16.16,0,0,1,.2.12c0,.13.06.26.1.4l.21-.06a.69.69,0,0,1,.83.59c0,.11.07.13.16.15a1.27,1.27,0,0,1,1.05,1.58.34.34,0,0,1-.15.2.18.18,0,0,1-.26-.18,1.52,1.52,0,0,1,0-.21.88.88,0,0,0-.39-.89Zm-.76-.05-.49.2s0,0,0,.07a2.62,2.62,0,0,0,.15.39.4.4,0,0,0,.46.15.41.41,0,0,0,.33-.31c0-.16,0-.26-.18-.27A.25.25,0,0,1,39.92,11.52Z"/><path class="cls-1" d="M44.11,10.42a1.89,1.89,0,0,1,.39-.07.62.62,0,0,1,.63.44.58.58,0,0,1-.33.68l-.59.27a.92.92,0,0,0-.27.16.17.17,0,0,0,0,.28.89.89,0,0,0,.33.15.79.79,0,0,0,.65-.23c.12-.12.23-.25.35-.38a.83.83,0,0,1,.53-.34.7.7,0,0,1,.74.55.69.69,0,0,1-.52.78.25.25,0,0,1-.17,0,.19.19,0,0,1,0-.35l.2-.11a.23.23,0,0,0,.1-.27.24.24,0,0,0-.28-.16.88.88,0,0,0-.29.18c-.12.12-.2.27-.31.39a1.23,1.23,0,0,1-1.2.35.71.71,0,0,1-.56-.85.53.53,0,0,1,.34-.41l.55-.19a1.51,1.51,0,0,0,.29-.13.21.21,0,0,0,.08-.26.23.23,0,0,0-.26-.12.45.45,0,0,0-.29.18.75.75,0,0,1-.19.17c-.11.06-.29,0-.29-.14s0-.51,0-.76a.16.16,0,0,1,.18-.14.19.19,0,0,1,.21.19Z"/><path class="cls-1" d="M35,10.61a.64.64,0,0,1,.57.12.55.55,0,0,1-.11.92,6,6,0,0,1-.6.2l-.22.1a.15.15,0,0,0,0,.27,1.37,1.37,0,0,0,.35.08,2.76,2.76,0,0,0,1.07-.09,1.07,1.07,0,0,0,.32-.16.32.32,0,0,0,.12-.29.16.16,0,0,0-.07-.11.22.22,0,0,1-.07-.31.21.21,0,0,1,.32,0,.59.59,0,0,1,.21.52.79.79,0,0,1-.51.69,2.33,2.33,0,0,1-1.19.2,3.22,3.22,0,0,1-.69-.12.49.49,0,0,1-.37-.5.51.51,0,0,1,.37-.52c.16-.07.33-.1.49-.16a1.23,1.23,0,0,0,.26-.12.16.16,0,0,0,0-.23A.18.18,0,0,0,35,11c-.07,0-.12.1-.19.14s-.15.09-.2.07a.3.3,0,0,1-.15-.18,1.26,1.26,0,0,1,.14-.74.22.22,0,0,1,.16-.06.46.46,0,0,1,.17.17S35,10.53,35,10.61Z"/><path class="cls-1" d="M32.63,11.65c.15,0,.29-.06.44-.07a1.47,1.47,0,0,1,.47,0,.5.5,0,0,1,.38.46.51.51,0,0,1-.26.51.89.89,0,0,1-.84.05,1,1,0,0,1-.43-.37c0-.08-.1-.09-.17,0l-.13,0a.22.22,0,0,1-.27-.12.17.17,0,0,1,.11-.24c.21-.06.27-.18.28-.4A.64.64,0,0,1,33,10.9a1.78,1.78,0,0,1,.39.07.2.2,0,0,1-.12.39l-.3-.06A.27.27,0,0,0,32.63,11.65Zm.12.4a.51.51,0,0,0,.66.21s.1-.1.09-.15a.16.16,0,0,0-.13-.12A1.33,1.33,0,0,0,32.75,12.05Z"/><path class="cls-1" d="M37.72,10.88a1,1,0,0,1,.63.2.76.76,0,0,1,.14.95,1,1,0,0,1-.59.5c-.21.07-.42.11-.64.16A.21.21,0,0,1,37,12.6a.18.18,0,0,1,.12-.29,2.07,2.07,0,0,0,.81-.25L38,12a.42.42,0,0,0,.12-.43.37.37,0,0,0-.35-.25h-.2c-.19,0-.21,0-.18.22a.15.15,0,0,1-.13.18.21.21,0,0,1-.27-.11.42.42,0,0,1,.1-.51A.88.88,0,0,1,37.72,10.88Z"/><path class="cls-1" d="M41.32,10.69V11a.21.21,0,0,1-.21.21A.17.17,0,0,1,40.9,11a3.49,3.49,0,0,0-.1-1.16.18.18,0,0,1,.14-.23.2.2,0,0,1,.26.14c.06.31.1.63.16.94Z"/></svg>